<svg width="25" height="24" viewBox="0 0 25 24" fill="none" xmlns="http://www.w3.org/2000/svg">
<g clip-path="url(#clip0_202_405)">
<path d="M8.16499 15.3333L12.3317 12L8.16499 8.66666V11.1667H0.664993V12.8333H8.16499V15.3333Z" fill="#9333EA"/>
<path d="M9.83249 4.49917C8.8471 4.49644 7.87096 4.68927 6.96062 5.06648C6.05027 5.44369 5.22383 5.99779 4.52916 6.69667L5.70749 7.87501C6.80916 6.77334 8.27416 6.16584 9.83249 6.16584C11.3908 6.16584 12.8558 6.77334 13.9575 7.87501C15.0592 8.97667 15.6667 10.4417 15.6667 12C15.6667 13.5583 15.0592 15.0233 13.9575 16.125C12.8558 17.2267 11.3908 17.8342 9.83249 17.8342C8.27416 17.8342 6.80916 17.2267 5.70749 16.125L4.52916 17.3033C5.94499 18.72 7.82833 19.5008 9.83249 19.5008C11.8367 19.5008 13.72 18.72 15.1358 17.3033C16.5525 15.8875 17.3333 14.0042 17.3333 12C17.3333 9.99584 16.5525 8.11251 15.1358 6.69667C14.4412 5.99779 13.6147 5.44369 12.7044 5.06648C11.794 4.68927 10.8179 4.49644 9.83249 4.49917Z" fill="#9333EA"/>
</g>
<defs>
<clipPath id="clip0_202_405">
<rect width="24" height="24" fill="white" transform="translate(0.5)"/>
</clipPath>
</defs>
</svg>
