<svg width="25" height="24" viewBox="0 0 25 24" fill="none" xmlns="http://www.w3.org/2000/svg">
<path d="M6.10382 12.9091H16.6362C17.1383 12.9091 17.5453 12.502 17.5453 12C17.5453 11.4979 17.1383 11.0909 16.6362 11.0909H6.10382L7.27921 9.91556C7.63424 9.56059 7.63424 8.98495 7.27921 8.62992C6.9243 8.27489 6.34867 8.27489 5.99358 8.62992L3.26648 11.357C3.24539 11.378 3.22552 11.4 3.20661 11.4231C3.202 11.4287 3.19806 11.4348 3.19358 11.4405C3.1797 11.4582 3.16606 11.4759 3.15358 11.4945C3.14994 11.5 3.14697 11.5057 3.14339 11.5113C3.13091 11.5308 3.11867 11.5505 3.10764 11.571C3.10552 11.5751 3.10376 11.5794 3.10164 11.5834C3.09018 11.6057 3.07915 11.6282 3.06952 11.6515C3.0683 11.6543 3.06745 11.6574 3.0663 11.6603C3.05642 11.6848 3.04727 11.7096 3.03952 11.7351C3.03848 11.7383 3.03794 11.7416 3.03703 11.7449C3.0297 11.7699 3.02297 11.7952 3.01782 11.8211C3.0163 11.8288 3.01564 11.8367 3.01424 11.8445C3.01048 11.8659 3.00673 11.8874 3.00461 11.9093C3.00152 11.9393 3 11.9696 3 12C3 12.0304 3.00152 12.0607 3.00461 12.0908C3.00673 12.113 3.01061 12.1346 3.0143 12.1562C3.01564 12.1637 3.0163 12.1714 3.01782 12.1789C3.02303 12.205 3.0297 12.2305 3.03709 12.2558C3.038 12.2588 3.03855 12.2619 3.03945 12.2649C3.04727 12.2905 3.05642 12.3156 3.06642 12.3403C3.06752 12.343 3.0683 12.3458 3.06945 12.3485C3.07915 12.3719 3.09024 12.3946 3.10182 12.417C3.10382 12.4209 3.10552 12.425 3.10758 12.429C3.11873 12.4496 3.13103 12.4695 3.1437 12.4892C3.14709 12.4945 3.15 12.5002 3.15352 12.5054C3.16606 12.5241 3.17982 12.5419 3.19364 12.5596C3.19806 12.5653 3.202 12.5713 3.20655 12.5769C3.22552 12.5999 3.24539 12.6219 3.26642 12.643L5.99352 15.37C6.17103 15.5476 6.4037 15.6363 6.63636 15.6363C6.86903 15.6363 7.1017 15.5476 7.27915 15.37C7.63418 15.015 7.63418 14.4394 7.27915 14.0844L6.10382 12.9091Z" fill="#9333EA"/>
<path d="M15.5636 4.56357C13.0821 4.56357 10.7734 5.7946 9.38765 7.85648C9.10765 8.27314 9.21844 8.83799 9.6351 9.11805C10.0518 9.39805 10.6166 9.28739 10.8967 8.8706C11.9441 7.31211 13.6887 6.38169 15.5636 6.38169C18.6615 6.38175 21.1818 8.90205 21.1818 12C21.1818 15.0979 18.6615 17.6182 15.5636 17.6182C13.6942 17.6182 11.9524 16.692 10.9043 15.1406C10.6232 14.7245 10.0582 14.6152 9.64207 14.8962C9.22607 15.1773 9.11662 15.7424 9.39771 16.1584C10.7844 18.211 13.0894 19.4364 15.5636 19.4364C19.664 19.4364 23 16.1005 23 12C23 7.89951 19.664 4.56357 15.5636 4.56357Z" fill="#9333EA"/>
</svg>
